<?xml version="1.0" standalone="no"?>
<!DOCTYPE svg PUBLIC "-//W3C//DTD SVG 20010904//EN"
 "http://www.w3.org/TR/2001/REC-SVG-20010904/DTD/svg10.dtd">
<svg version="1.0" xmlns="http://www.w3.org/2000/svg"
 width="800.000000pt" height="600.000000pt" viewBox="0 0 800.000000 600.000000"
 preserveAspectRatio="xMidYMid meet">

<g transform="translate(0.000000,600.000000) scale(0.100000,-0.100000)"
fill="#000000" stroke="none">
<path d="M7310 5799 c-147 -120 -167 -132 -214 -125 -17 3 -107 17 -201 31
-93 14 -213 32 -265 40 -147 23 -206 28 -230 20 -39 -12 -7 -24 95 -35 55 -6
110 -13 122 -16 18 -3 -23 -47 -260 -271 -537 -509 -1057 -1006 -1057 -1012 0
-3 19 13 43 36 23 22 233 219 467 438 234 219 520 489 636 602 l212 203 58 -5
c114 -12 113 -10 68 -56 -49 -50 -35 -50 33 1 80 61 86 38 9 -32 -36 -33 -64
-64 -60 -69 14 -23 59 -5 140 56 85 64 88 66 133 59 25 -4 54 -10 63 -13 14
-5 -202 -186 -857 -720 -481 -392 -875 -715 -875 -718 0 -3 33 -4 73 -1 l72 5
245 179 c135 98 253 188 263 199 10 11 16 13 12 5 -4 -8 3 -4 15 10 12 14 18
19 14 11 -5 -9 -3 -12 5 -7 6 4 9 11 6 15 -2 5 268 231 601 502 l606 494 47
-1 c25 0 100 -8 166 -17 132 -19 211 -22 219 -8 7 11 -26 17 -208 36 -82 9
-155 19 -162 23 -9 5 30 43 121 116 74 60 135 112 135 116 0 7 -83 20 -130 20
-17 0 -68 -35 -160 -111z"/>
<path d="M6879 5219 c-294 -215 -541 -398 -549 -407 -18 -19 -56 -46 560 403
489 356 541 395 529 395 -4 0 -246 -176 -540 -391z"/>
<path d="M6289 4783 c-13 -16 -12 -17 4 -4 9 7 17 15 17 17 0 8 -8 3 -21 -13z"/>
<path d="M6235 4744 l-30 -26 33 22 c17 12 32 23 32 26 0 7 -4 5 -35 -22z"/>
<path d="M6179 4703 c-13 -16 -12 -17 4 -4 16 13 21 21 13 21 -2 0 -10 -8 -17
-17z"/>
<path d="M6139 4673 c-13 -16 -12 -17 4 -4 16 13 21 21 13 21 -2 0 -10 -8 -17
-17z"/>
<path d="M4529 4231 c8 -5 59 -12 115 -15 56 -4 140 -12 187 -18 48 -6 93 -8
100 -6 15 5 -337 49 -386 48 -21 0 -26 -3 -16 -9z"/>
<path d="M5248 4213 c7 -3 16 -2 19 1 4 3 -2 6 -13 5 -11 0 -14 -3 -6 -6z"/>
<path d="M5269 4141 c-2 -5 -65 -59 -140 -119 -135 -109 -137 -110 -105 -116
38 -7 380 -52 459 -61 35 -4 57 -3 57 3 0 6 -35 13 -77 16 -151 12 -278 28
-285 34 -4 4 53 55 125 114 122 100 135 108 177 109 43 1 42 2 -15 9 -143 18
-193 21 -196 11z"/>
<path d="M5540 4114 c14 -3 183 -29 265 -40 27 -4 37 -3 30 4 -10 11 -236 43
-283 41 -15 -1 -20 -3 -12 -5z"/>
<path d="M4250 4012 c0 -6 10 -12 23 -15 42 -11 378 -49 383 -44 3 3 -23 8
-58 12 -35 3 -97 12 -138 20 -41 7 -97 16 -125 20 -27 3 -58 8 -67 11 -10 3
-18 1 -18 -4z"/>
<path d="M1725 1982 c-3 -3 3 -11 13 -16 17 -10 2 -27 -134 -151 -259 -236
-273 -250 -154 -154 332 267 351 283 333 291 -10 5 -1 6 22 3 22 -3 83 -10
135 -15 202 -20 298 -32 380 -45 82 -14 83 -14 20 -10 -36 3 -96 7 -135 10
l-70 6 -647 -529 -647 -529 -62 9 c-86 13 -225 60 -222 75 3 12 -34 10 -76 -3
-26 -8 8 -31 57 -37 26 -3 101 -22 167 -42 66 -20 184 -48 263 -63 78 -14 139
-29 135 -32 -5 -4 -107 -88 -229 -187 -201 -164 -222 -179 -233 -162 -18 29
-114 24 -150 -7 -3 -2 4 -12 15 -22 15 -15 27 -17 68 -10 28 4 51 6 53 5 1 -2
-54 -49 -123 -105 -69 -56 -121 -102 -116 -102 33 0 212 55 237 73 17 11 163
129 325 262 l295 240 240 0 c177 0 246 3 263 13 31 18 28 29 -14 50 l-36 19
658 487 c363 268 658 492 656 498 -2 7 12 9 38 5 22 -3 43 -1 46 4 3 5 -1 9
-10 9 -8 0 -16 5 -18 11 -2 7 -72 19 -173 31 -121 13 -171 23 -179 34 -9 12
-45 16 -181 19 -94 2 -177 6 -185 9 -8 3 -82 10 -165 16 -82 6 -193 18 -245
27 -101 17 -205 24 -215 15z m1100 -147 l90 -14 -80 5 c-44 3 -96 9 -115 14
-56 13 2 10 105 -5z m128 -22 c-7 -2 -19 -2 -25 0 -7 3 -2 5 12 5 14 0 19 -2
13 -5z m-1525 -1050 c-21 -2 -57 -2 -80 0 -24 2 -7 4 37 4 44 0 63 -2 43 -4z"/>
<path d="M484 328 l-19 -23 23 19 c21 18 27 26 19 26 -2 0 -12 -10 -23 -22z"/>
<path d="M439 293 c-13 -16 -12 -17 4 -4 16 13 21 21 13 21 -2 0 -10 -8 -17
-17z"/>
<path d="M60 10 c0 -6 11 -10 25 -10 33 0 33 15 0 18 -14 1 -25 -3 -25 -8z"/>
</g>
</svg>
