<?xml version="1.0"?><svg xmlns="http://www.w3.org/2000/svg"  viewBox="0 0 64 64" width="256px" height="256px"><title>Icons8 RSL Colored Part 10</title><path d="M17.43,50.75l-2.09,9a29.78,29.78,0,0,0-4.11-.29A29.25,29.25,0,0,0,5.49,60l-1.92.38-.25,0,.44-2.17A29.09,29.09,0,0,0,4,48.46l9-2.08,2.3,2.29Z" style="fill:#f9dd8f;"/><path d="M17.43,50.75l-2.09,9a29.78,29.78,0,0,0-4.11-.29A29.25,29.25,0,0,0,5.49,60l-1.92.38L15.33,48.67Z" style="fill:#f7cc8f;"/><path d="M12.8,39.28,31.14,18.52,47.61,4.93a8.18,8.18,0,0,1,11,.52h0A8.18,8.18,0,0,1,59,16.55L45.28,32.66,24.52,51a5,5,0,0,1-6.85-.21L13,46.13A5,5,0,0,1,12.8,39.28Z" style="fill:#cda1a7;"/><polygon points="48.47 29.76 34.3 15.54 27.65 21.64 41.66 36.26 48.47 29.76" style="fill:#f9dd8f;"/><path d="M61,11.24a8.18,8.18,0,0,1-2,5.31L48.11,29.35a1.9,1.9,0,0,0-.53-1l-3.66-3.66L60.42,8.2A8.41,8.41,0,0,1,61,11.24Z" style="fill:#c4939c;"/><path d="M41.53,36l-17,15a5,5,0,0,1-6.76-.15L36.85,31.78l3.66,3.66A2,2,0,0,0,41.53,36Z" style="fill:#c4939c;"/><path d="M55.49,3.51,39.11,19.9l-3.67-3.67a1.9,1.9,0,0,0-.9-.51L47.61,4.93A8.14,8.14,0,0,1,55.49,3.51Z" style="fill:#dbb2ba;"/><path d="M32,27,12.94,46.06a5,5,0,0,1-.14-6.78l15-17a2.05,2.05,0,0,0,.55,1Z" style="fill:#dbb2ba;"/><path d="M39.11,19.9,32,27,28.37,23.3a2.05,2.05,0,0,1-.55-1h0l3.32-3.75,3.4-2.8a1.9,1.9,0,0,1,.9.51Z" style="fill:#f9e3ae;"/><path d="M34.54,15.72l-3.4,2.8-3.32,3.75a2,2,0,0,1,.55-1.8l4.24-4.24A2,2,0,0,1,34.54,15.72Z" style="fill:#fff;"/><path d="M48.11,29.35l-2.83,3.31L41.53,36a2,2,0,0,1-1-.54l-3.66-3.66,7.07-7.07,3.66,3.66A1.9,1.9,0,0,1,48.11,29.35Z" style="fill:#f7cc8f;"/><path d="M47.58,31.2l-4.24,4.24a2,2,0,0,1-1.81.54l3.75-3.32,2.83-3.31A2,2,0,0,1,47.58,31.2Z" style="fill:#fff;"/><path d="M59.28,4.77A9.11,9.11,0,0,0,47,4.18L44.68,6.1a16.39,16.39,0,0,0-14.19,4.59L20.32,20.86a1,1,0,1,0,1.36,1.36L31.85,12A14.45,14.45,0,0,1,42.57,7.83l-8.25,6.82h0a3,3,0,0,0-2.41.87l-4.24,4.24A3,3,0,0,0,26.78,22L12.08,38.64a6,6,0,0,0-.59,7.07L3.81,47.49A1,1,0,0,0,3,48.6a28.13,28.13,0,0,1-.26,9.51l-.43,2.17a1,1,0,0,0,1,1.2l.2,0L5.69,61a28.08,28.08,0,0,1,9.51-.26A1,1,0,0,0,16.32,60l1.77-7.68a5.93,5.93,0,0,0,7.07-.59L41.82,37h.1A3,3,0,0,0,44,36.15l4.25-4.24a3,3,0,0,0,.87-2.31L59.77,17.17A9.17,9.17,0,0,0,59.28,4.77ZM14.57,58.67a30.08,30.08,0,0,0-9.28.4l-.7.14.14-.7a30.14,30.14,0,0,0,.4-9.28l7.81-1.8,3.43,3.43Zm9.32-8.39a4,4,0,0,1-5.53-.17l-4.67-4.66a4.08,4.08,0,0,1-1.18-2.86,4,4,0,0,1,1-2.67L24.08,28l5.86,5.86a1,1,0,0,0,1.41-1.41L25.4,26.47,27.62,24l0,0L39.8,36.15l0,0ZM41.36,34.85l-.15-.12L29.07,22.59,29,22.45a1,1,0,0,1,.12-1.27l4.25-4.25a1,1,0,0,1,1.34-.06l.07.06L46.87,29.08a.64.64,0,0,1,.1.13,1,1,0,0,1-.1,1.28l-4.24,4.24A1,1,0,0,1,41.36,34.85Zm6.93-7.19L36.21,15.59l3-2.51L50.84,24.67Zm10-11.74-6.17,7.23L40.8,11.8l7.42-6.13A7.22,7.22,0,0,1,58.31,15.92Z" style="fill:#8d6c9f;"/><path d="M34.18,35.24a1,1,0,0,0-1.41,1.41l1.41,1.41a1,1,0,0,0,1.41-1.41Z" style="fill:#8d6c9f;"/><path d="M34.52,21l-1.41,1.41a1,1,0,1,0,1.41,1.41l1.41-1.41A1,1,0,0,0,34.52,21Z" style="fill:#8d6c9f;"/><path d="M38.06,24.51l-1.41,1.41a1,1,0,1,0,1.41,1.41l1.41-1.41a1,1,0,0,0-1.41-1.41Z" style="fill:#8d6c9f;"/><path d="M43,28a1,1,0,0,0-1.41,0l-1.41,1.41a1,1,0,1,0,1.41,1.41L43,29.46A1,1,0,0,0,43,28Z" style="fill:#8d6c9f;"/><path d="M9,52a2,2,0,0,0,2.83,2.83h0A2,2,0,0,0,9,52Z" style="fill:#8d6c9f;"/></svg>